<svg xmlns="http://www.w3.org/2000/svg" viewBox="0 0 144 144">
  <rect width="144" height="144" rx="24" fill="#1a1a1d"/>
  <path fill="#fff" d="M14 84C14 58 26 44 46 42C56 41 64 40 72 40C80 40 88 41 98 42C118 44 130 58 130 84C130 104 126 118 112 118C102 118 96 110 92 100C89 94 85 92 78 92L66 92C59 92 55 94 52 100C48 110 42 118 32 118C18 118 14 104 14 84Z"/>
  <g fill="#1a1a1d">
    <circle cx="44" cy="58" r="12"/>
    <path d="M54 73h8v-8h9v8h8v9h-8v8h-9v-8h-8z"/>
    <circle cx="86" cy="80" r="11"/>
    <circle cx="103" cy="46" r="7"/><circle cx="91" cy="58" r="7"/><circle cx="115" cy="58" r="7"/><circle cx="103" cy="70" r="7"/>
  </g>
</svg>
